<svg width="19" height="18" viewBox="0 0 19 18" fill="none" xmlns="http://www.w3.org/2000/svg">
<rect width="19" height="18" fill="#F2F2F2"/>
<g id="Uber">
<rect id="&#208;&#164;&#208;&#190;&#208;&#189;" x="-31" y="-5152" width="1920" height="5250" fill="white"/>
<g id="&#209;&#132;&#209;&#131;&#209;&#130;&#208;&#181;&#209;&#128;">
<path id="&#208;&#154;&#209;&#128;&#209;&#131;&#208;&#179;&#208;&#187;&#208;&#176;&#209;&#143; &#208;&#191;&#208;&#190;&#208;&#180;&#208;&#187;&#208;&#190;&#208;&#182;&#208;&#186;&#208;&#176;" fill-rule="evenodd" clip-rule="evenodd" d="M9.98909 -7.01242C18.8256 -7.01242 25.9891 0.151065 25.9891 8.98741C25.9891 17.8241 18.8256 24.9876 9.98909 24.9876C1.15254 24.9876 -6.01088 17.8241 -6.01088 8.98741C-6.01088 0.151065 1.15254 -7.01242 9.98909 -7.01242Z" fill="#070716"/>
<g id="facebook" clip-path="url(#clip0_0_1)">
<path id="Vector" d="M12.3285 2.98875H13.9474V0.12675C13.6681 0.08775 12.7076 0 11.589 0C9.25495 0 7.65609 1.49025 7.65609 4.22925V6.75H5.08047V9.9495H7.65609V18H10.8139V9.95025H13.2854L13.6777 6.75075H10.8132V4.5465C10.8139 3.62175 11.0592 2.98875 12.3285 2.98875Z" fill="white"/>
</g>
</g>
</g>
<defs>
<clipPath id="clip0_0_1">
<rect width="17.7323" height="18" fill="white" transform="translate(0.509232)"/>
</clipPath>
</defs>
</svg>
